<svg xmlns:xlink="http://www.w3.org/1999/xlink" width="193" xmlns="http://www.w3.org/2000/svg" height="192" id="screenshot-70ee37ce-5122-80f3-8004-0612319d49ee" viewBox="0 0 193 192" style="-webkit-print-color-adjust: exact;" fill="none" version="1.1"><g id="shape-70ee37ce-5122-80f3-8004-0612319d49ee" rx="0" ry="0"><g xmlns:xlink="http://www.w3.org/1999/xlink" xml:space="preserve" x="0px" id="shape-70ee37ce-5122-80f3-8004-0613337115e7" style="fill: rgb(0, 0, 0);" ry="0" rx="0" y="0px" version="1.1"><g id="shape-70ee37ce-5122-80f3-8004-06133371f2df"><style type="text/css" rx="0" ry="0" style="fill: rgb(0, 0, 0);">.st0{fill-rule:evenodd;clip-rule:evenodd;fill:#EC6F59;} .st1{fill-rule:evenodd;clip-rule:evenodd;fill:#FAD15C;}</style></g><g id="shape-70ee37ce-5122-80f3-8004-061333721350" rx="0" ry="0" style="fill: rgb(0, 0, 0);"><g id="shape-70ee37ce-5122-80f3-8004-06133373301a"><g class="fills" id="fills-70ee37ce-5122-80f3-8004-06133373301a"><path class="st0" rx="0" ry="0" d="M38.926,85.766C32.839,45.000,64.717,16.328,124.497,0.000C87.893,35.484,155.705,73.922,159.449,110.766C168.214,99.594,173.192,84.688,174.175,64.750C219.000,117.281,181.830,203.141,83.186,190.797C74.129,189.672,65.407,187.531,57.459,184.344C21.482,170.000,0.000,138.734,0.000,108.875C0.000,89.844,10.898,72.859,24.996,59.359C26.878,72.578,30.894,82.438,38.926,85.766ZL38.926,85.766ZZ"/></g></g></g></g><g id="shape-70ee37ce-5122-80f3-8004-0612319d49f0" rx="0" ry="0"><g id="shape-70ee37ce-5122-80f3-8004-0612319d49f5"><g class="fills" id="fills-70ee37ce-5122-80f3-8004-0612319d49f5"><ellipse rx="25.879781420765028" ry="24.634615384615415" cx="66.24590163934428" cy="112.44230769230768" transform="matrix(1.000000, 0.000000, 0.000000, 1.000000, 0.000000, 0.000000)" style="fill: rgb(0, 0, 0); fill-opacity: 1;"/></g></g><g id="shape-70ee37ce-5122-80f3-8004-0612319d49f6"><g class="fills" id="fills-70ee37ce-5122-80f3-8004-0612319d49f6"><ellipse rx="26.284153005464475" ry="25.03846153846152" cx="131.3497267759563" cy="112.03846153846152" transform="matrix(1.000000, 0.000000, 0.000000, 1.000000, 0.000000, 0.000000)" style="fill: rgb(0, 0, 0); fill-opacity: 1;"/></g></g><g id="shape-70ee37ce-5122-80f3-8004-0612319d49f7"><g class="fills" id="fills-70ee37ce-5122-80f3-8004-0612319d49f7"><ellipse rx="74" ry="42.40384615384616" cx="99" cy="149.59615384615378" transform="matrix(1.000000, 0.000000, 0.000000, 1.000000, 0.000000, 0.000000)" style="fill: rgb(0, 0, 0); fill-opacity: 1;"/></g></g></g></g></svg>